<?xml version="1.0" encoding="UTF-8"?>
<!DOCTYPE svg PUBLIC "-//W3C//DTD SVG 1.1//EN" "http://www.w3.org/Graphics/SVG/1.1/DTD/svg11.dtd">
<!-- Creator: CorelDRAW -->
<svg xmlns="http://www.w3.org/2000/svg" xml:space="preserve" width="640px" height="640px" version="1.1" style="shape-rendering:geometricPrecision; text-rendering:geometricPrecision; image-rendering:optimizeQuality; fill-rule:evenodd; clip-rule:evenodd"
viewBox="0 0 640 640"
 xmlns:xlink="http://www.w3.org/1999/xlink"
 xmlns:xodm="http://www.corel.com/coreldraw/odm/2003">
 <defs>
  <style type="text/css">
   <![CDATA[
    .fil1 {fill:black;fill-rule:nonzero}
    .fil0 {fill:#916EFF;fill-rule:nonzero}
    .fil2 {fill:#EE0290;fill-rule:nonzero}
    .fil3 {fill:#FF9E22;fill-rule:nonzero}
   ]]>
  </style>
 </defs>
 <g id="Layer_x0020_1">
  <metadata id="CorelCorpID_0Corel-Layer"/>
  <path class="fil0" d="M38.42 20l103.16 0c10.17,0 18.42,8.08 18.42,18.03l0 28.85c0,9.95 -8.25,18.03 -18.42,18.03l-103.16 0c-10.17,0 -18.42,-8.08 -18.42,-18.03l0 -28.85c0,-9.95 8.25,-18.03 18.42,-18.03z"/>
  <polygon class="fil1" points="324.37,502.68 324.37,470.81 366.56,470.81 366.56,341.12 324.37,341.12 324.37,309.25 447.19,309.25 447.19,341.12 405.31,341.12 405.31,470.81 447.19,470.81 447.19,502.68 "/>
  <path id="1" class="fil1" d="M530.63 307.06c10.93,0 20.93,1.25 30,3.75 9.06,2.5 16.56,6.25 23.12,11.56 6.56,5.32 11.56,11.88 15,19.69 3.44,8.12 5,17.5 5,28.44 0,11.25 -2.19,21.56 -6.88,30.62 -4.68,9.06 -12.18,16.25 -22.81,20.94 3.44,5.31 7.19,11.25 11.25,17.81 4.06,6.56 7.81,13.44 11.56,20.63 3.75,7.19 7.5,14.37 10.94,21.56 3.44,7.19 6.25,14.06 8.75,20.62l-40.31 0c-4.69,-12.49 -10.31,-24.68 -16.56,-36.25 -6.56,-11.56 -13.44,-23.12 -20.63,-35l-20 0 0 71.25 -38.44 0 0 -190.62c3.75,-0.94 7.82,-1.56 12.51,-2.5 4.37,-0.62 8.74,-1.25 13.43,-1.56 4.69,-0.32 9.07,-0.32 13.13,-0.63 4.06,-0.31 7.81,-0.31 10.94,-0.31zm34.06 63.13c0,-10.32 -3.13,-17.82 -9.38,-22.5 -6.25,-4.69 -14.37,-7.19 -24.68,-7.19 -1.57,0 -3.13,0 -5.32,0 -2.18,0.31 -4.06,0.62 -6.25,0.93l0 58.13 8.44 0c13.12,0 22.5,-2.5 28.44,-7.81 5.93,-5 8.75,-12.19 8.75,-21.56z"/>
  <path class="fil0" d="M38.42 555.1l103.16 0c10.17,0 18.42,8.07 18.42,18.02l0 28.85c0,9.96 -8.25,18.03 -18.42,18.03l-103.16 0c-10.17,0 -18.42,-8.07 -18.42,-18.03l0 -28.85c0,-9.95 8.25,-18.02 18.42,-18.02z"/>
  <path class="fil0" d="M38.42 478.62l103.16 0c10.17,0 18.42,8.07 18.42,18.03l0 28.84c0,9.96 -8.25,18.03 -18.42,18.03l-103.16 0c-10.17,0 -18.42,-8.07 -18.42,-18.03l0 -28.84c0,-9.96 8.25,-18.03 18.42,-18.03z"/>
  <path class="fil0" d="M38.42 402.14l103.16 0c10.17,0 18.42,8.07 18.42,18.03l0 28.85c0,9.95 -8.25,18.02 -18.42,18.02l-103.16 0c-10.17,0 -18.42,-8.07 -18.42,-18.02l0 -28.85c0,-9.96 8.25,-18.03 18.42,-18.03z"/>
  <path class="fil0" d="M38.42 325.66l103.16 0c10.17,0 18.42,8.08 18.42,18.03l0 28.85c0,9.95 -8.25,18.03 -18.42,18.03l-103.16 0c-10.17,0 -18.42,-8.08 -18.42,-18.03l0 -28.85c0,-9.95 8.25,-18.03 18.42,-18.03z"/>
  <path class="fil0" d="M38.42 249.18l103.16 0c10.17,0 18.42,8.08 18.42,18.03l0 28.85c0,9.96 -8.25,18.03 -18.42,18.03l-103.16 0c-10.17,0 -18.42,-8.07 -18.42,-18.03l0 -28.85c0,-9.95 8.25,-18.03 18.42,-18.03z"/>
  <path class="fil0" d="M38.42 172.7l103.16 0c10.17,0.01 18.42,8.08 18.42,18.03l0 28.85c0,9.96 -8.25,18.03 -18.42,18.03l-103.16 0c-10.17,0 -18.42,-8.07 -18.42,-18.03l0 -28.85c0,-9.95 8.25,-18.02 18.42,-18.02z"/>
  <path class="fil0" d="M38.42 96.23l103.16 0c10.17,0 18.42,8.07 18.42,18.03l0 28.84c0,9.96 -8.25,18.03 -18.42,18.03l-103.16 0c-10.17,0 -18.42,-8.07 -18.42,-18.03l0 -28.84c0,-9.96 8.25,-18.03 18.42,-18.03z"/>
  <path class="fil2" d="M188.42 20l103.16 0c10.17,0 18.42,8.07 18.42,18.03l0 28.85c0,9.95 -8.25,18.03 -18.42,18.03l-103.16 0c-10.17,0 -18.42,-8.08 -18.42,-18.03l0 -28.85c0,-9.96 8.25,-18.03 18.42,-18.03z"/>
  <path class="fil2" d="M188.42 555.09l103.16 0c10.17,0.01 18.42,8.08 18.42,18.03l0 28.85c0,9.96 -8.25,18.03 -18.42,18.03l-103.16 0c-10.17,0 -18.42,-8.07 -18.42,-18.03l0 -28.85c0,-9.95 8.25,-18.02 18.42,-18.02z"/>
  <path class="fil2" d="M188.42 478.62l103.16 0c10.17,0 18.42,8.07 18.42,18.03l0 28.84c0,9.96 -8.25,18.03 -18.42,18.03l-103.16 0c-10.17,0 -18.42,-8.07 -18.42,-18.03l0 -28.84c0,-9.96 8.25,-18.03 18.42,-18.03z"/>
  <path class="fil2" d="M188.42 249.18l103.16 0c10.17,0 18.42,8.08 18.42,18.03l0 28.85c0,9.95 -8.25,18.03 -18.42,18.03l-103.16 0c-10.17,0 -18.42,-8.08 -18.42,-18.03l0 -28.85c0,-9.95 8.25,-18.03 18.42,-18.03z"/>
  <path class="fil2" d="M188.42 172.7l103.16 0c10.17,0 18.42,8.08 18.42,18.03l0 28.85c0,9.96 -8.25,18.03 -18.42,18.03l-103.16 0c-10.17,0 -18.42,-8.07 -18.42,-18.03l0 -28.85c0,-9.95 8.25,-18.03 18.42,-18.03z"/>
  <path class="fil2" d="M188.42 96.23l103.16 0c10.17,0 18.42,8.07 18.42,18.03l0 28.84c0,9.96 -8.25,18.03 -18.42,18.03l-103.16 0c-10.17,0 -18.42,-8.07 -18.42,-18.03l0 -28.84c0,-9.96 8.25,-18.03 18.42,-18.03z"/>
  <path class="fil3" d="M338.42 555.09l103.16 0c10.17,0.01 18.42,8.08 18.42,18.03l0 28.85c0,9.96 -8.25,18.03 -18.42,18.03l-103.16 0c-10.17,0 -18.42,-8.07 -18.42,-18.03l0 -28.85c0,-9.95 8.25,-18.02 18.42,-18.02z"/>
  <path class="fil3" d="M338.42 172.7l103.16 0c10.17,0 18.42,8.08 18.42,18.03l0 28.85c0,9.96 -8.25,18.03 -18.42,18.03l-103.16 0c-10.17,0 -18.42,-8.07 -18.42,-18.03l0 -28.85c0,-9.95 8.25,-18.03 18.42,-18.03z"/>
  <path class="fil3" d="M338.42 96.23l103.16 0c10.17,0 18.42,8.07 18.42,18.03l0 28.84c0,9.96 -8.25,18.03 -18.42,18.03l-103.16 0c-10.17,0 -18.42,-8.07 -18.42,-18.03l0 -28.84c0,-9.96 8.25,-18.03 18.42,-18.03z"/>
 </g>
</svg>
